<svg id="visual" viewBox="0 0 960 300" width="960" height="300" xmlns="http://www.w3.org/2000/svg" xmlns:xlink="http://www.w3.org/1999/xlink" version="1.1"><rect x="0" y="0" width="960" height="300" fill="#282a36"></rect><path d="M0 91L22.8 96.3C45.7 101.7 91.3 112.3 137 113.8C182.7 115.3 228.3 107.7 274 99.8C319.7 92 365.3 84 411.2 79.8C457 75.7 503 75.3 548.8 80.7C594.7 86 640.3 97 686 101.7C731.7 106.3 777.3 104.7 823 99.3C868.7 94 914.3 85 937.2 80.5L960 76L960 0L937.2 0C914.3 0 868.7 0 823 0C777.3 0 731.7 0 686 0C640.3 0 594.7 0 548.8 0C503 0 457 0 411.2 0C365.3 0 319.7 0 274 0C228.3 0 182.7 0 137 0C91.3 0 45.7 0 22.8 0L0 0Z" fill="#ff5555"></path><path d="M0 67L22.8 70.7C45.7 74.3 91.3 81.7 137 83C182.7 84.3 228.3 79.7 274 76.5C319.7 73.3 365.3 71.7 411.2 75.2C457 78.7 503 87.3 548.8 91.8C594.7 96.3 640.3 96.7 686 91.5C731.7 86.3 777.3 75.7 823 70.8C868.7 66 914.3 67 937.2 67.5L960 68L960 0L937.2 0C914.3 0 868.7 0 823 0C777.3 0 731.7 0 686 0C640.3 0 594.7 0 548.8 0C503 0 457 0 411.2 0C365.3 0 319.7 0 274 0C228.3 0 182.7 0 137 0C91.3 0 45.7 0 22.8 0L0 0Z" fill="#ff7253"></path><path d="M0 76L22.8 72.2C45.7 68.3 91.3 60.7 137 60C182.7 59.3 228.3 65.7 274 64.8C319.7 64 365.3 56 411.2 57.3C457 58.7 503 69.3 548.8 70.5C594.7 71.7 640.3 63.3 686 60.3C731.7 57.3 777.3 59.7 823 58.8C868.7 58 914.3 54 937.2 52L960 50L960 0L937.2 0C914.3 0 868.7 0 823 0C777.3 0 731.7 0 686 0C640.3 0 594.7 0 548.8 0C503 0 457 0 411.2 0C365.3 0 319.7 0 274 0C228.3 0 182.7 0 137 0C91.3 0 45.7 0 22.8 0L0 0Z" fill="#ff8b56"></path><path d="M0 43L22.8 44.5C45.7 46 91.3 49 137 46.5C182.7 44 228.3 36 274 32.3C319.7 28.7 365.3 29.3 411.2 30.8C457 32.3 503 34.7 548.8 35.2C594.7 35.7 640.3 34.3 686 37.2C731.7 40 777.3 47 823 50.5C868.7 54 914.3 54 937.2 54L960 54L960 0L937.2 0C914.3 0 868.7 0 823 0C777.3 0 731.7 0 686 0C640.3 0 594.7 0 548.8 0C503 0 457 0 411.2 0C365.3 0 319.7 0 274 0C228.3 0 182.7 0 137 0C91.3 0 45.7 0 22.8 0L0 0Z" fill="#ffa25e"></path><path d="M0 24L22.8 25.2C45.7 26.3 91.3 28.7 137 29C182.7 29.3 228.3 27.7 274 25.7C319.7 23.7 365.3 21.3 411.2 22.3C457 23.3 503 27.7 548.8 30.2C594.7 32.7 640.3 33.3 686 30.2C731.7 27 777.3 20 823 18.5C868.7 17 914.3 21 937.2 23L960 25L960 0L937.2 0C914.3 0 868.7 0 823 0C777.3 0 731.7 0 686 0C640.3 0 594.7 0 548.8 0C503 0 457 0 411.2 0C365.3 0 319.7 0 274 0C228.3 0 182.7 0 137 0C91.3 0 45.7 0 22.8 0L0 0Z" fill="#ffb86c"></path></svg>